<?xml version="1.0" encoding="UTF-8" standalone="no"?><svg xmlns="http://www.w3.org/2000/svg" xmlns:xlink="http://www.w3.org/1999/xlink" contentScriptType="application/ecmascript" contentStyleType="text/css" height="800px" preserveAspectRatio="none" style="width:1228px;height:800px;background:#FFFFFF;" version="1.1" viewBox="0 0 1228 800" width="1228px" zoomAndPan="magnify"><defs><filter height="300%" id="f12dcy84fe03dp" width="300%" x="-1" y="-1"><feGaussianBlur result="blurOut" stdDeviation="2.0"/><feColorMatrix in="blurOut" result="blurOut2" type="matrix" values="0 0 0 0 0 0 0 0 0 0 0 0 0 0 0 0 0 0 .4 0"/><feOffset dx="4.0" dy="4.0" in="blurOut2" result="blurOut3"/><feBlend in="SourceGraphic" in2="blurOut3" mode="normal"/></filter></defs><g><text fill="#000000" font-family="sans-serif" font-size="18" lengthAdjust="spacing" textLength="480" x="370.5" y="28.708">Initial connection to an Imuv server (through a proxy)</text><rect fill="#FFFFFF" filter="url(#f12dcy84fe03dp)" height="124.6953" style="stroke:#A80036;stroke-width:1.0;" width="10" x="81.5" y="543.9766"/><rect fill="#FFFFFF" filter="url(#f12dcy84fe03dp)" height="509.2891" style="stroke:#A80036;stroke-width:1.0;" width="10" x="329" y="197.5156"/><rect fill="#FFFFFF" filter="url(#f12dcy84fe03dp)" height="87.3984" style="stroke:#A80036;stroke-width:1.0;" width="10" x="793" y="226.6484"/><rect fill="#FFFFFF" filter="url(#f12dcy84fe03dp)" height="87.3984" style="stroke:#A80036;stroke-width:1.0;" width="10" x="793" y="367.3125"/><rect fill="#FFFFFF" filter="url(#f12dcy84fe03dp)" height="29.1328" style="stroke:#A80036;stroke-width:1.0;" width="10" x="1171" y="255.7813"/><rect fill="#FFFFFF" filter="url(#f12dcy84fe03dp)" height="29.1328" style="stroke:#A80036;stroke-width:1.0;" width="10" x="1171" y="396.4453"/><rect fill="#FFFFFF" filter="url(#f12dcy84fe03dp)" height="133.6641" style="stroke:#000000;stroke-width:2.0;" width="940" x="271" y="329.0469"/><rect fill="#FFFFFF" filter="url(#f12dcy84fe03dp)" height="46.2656" style="stroke:#000000;stroke-width:2.0;" width="354" x="43" y="565.1406"/><line style="stroke:#A80036;stroke-width:1.0;stroke-dasharray:5.0,5.0;" x1="24" x2="24" y1="123.25" y2="715.8047"/><line style="stroke:#A80036;stroke-width:1.0;stroke-dasharray:5.0,5.0;" x1="86" x2="86" y1="545.4922" y2="715.8047"/><line style="stroke:#A80036;stroke-width:1.0;stroke-dasharray:5.0,5.0;" x1="334" x2="334" y1="123.25" y2="715.8047"/><line style="stroke:#A80036;stroke-width:1.0;stroke-dasharray:5.0,5.0;" x1="797.5" x2="797.5" y1="123.25" y2="715.8047"/><line style="stroke:#A80036;stroke-width:1.0;stroke-dasharray:5.0,5.0;" x1="1176" x2="1176" y1="123.25" y2="715.8047"/><text fill="#000000" font-family="sans-serif" font-size="14" lengthAdjust="spacing" textLength="32" x="5" y="119.9482">User</text><ellipse cx="24" cy="49.9531" fill="#FEFECE" filter="url(#f12dcy84fe03dp)" rx="8" ry="8" style="stroke:#A80036;stroke-width:2.0;"/><path d="M24,57.9531 L24,84.9531 M11,65.9531 L37,65.9531 M24,84.9531 L11,99.9531 M24,84.9531 L37,99.9531 " fill="none" filter="url(#f12dcy84fe03dp)" style="stroke:#A80036;stroke-width:2.0;"/><text fill="#000000" font-family="sans-serif" font-size="14" lengthAdjust="spacing" textLength="32" x="5" y="727.7998">User</text><ellipse cx="24" cy="741.1016" fill="#FEFECE" filter="url(#f12dcy84fe03dp)" rx="8" ry="8" style="stroke:#A80036;stroke-width:2.0;"/><path d="M24,749.1016 L24,776.1016 M11,757.1016 L37,757.1016 M24,776.1016 L11,791.1016 M24,776.1016 L37,791.1016 " fill="none" filter="url(#f12dcy84fe03dp)" style="stroke:#A80036;stroke-width:2.0;"/><rect fill="#FEFECE" filter="url(#f12dcy84fe03dp)" height="30.2969" style="stroke:#A80036;stroke-width:1.5;" width="63" x="53" y="714.8047"/><text fill="#000000" font-family="sans-serif" font-size="14" lengthAdjust="spacing" textLength="49" x="60" y="734.7998">WebGL</text><rect fill="#FEFECE" filter="url(#f12dcy84fe03dp)" height="30.2969" style="stroke:#A80036;stroke-width:1.5;" width="102" x="281" y="87.9531"/><text fill="#000000" font-family="sans-serif" font-size="14" lengthAdjust="spacing" textLength="88" x="288" y="107.9482">WebBrowser</text><rect fill="#FEFECE" filter="url(#f12dcy84fe03dp)" height="30.2969" style="stroke:#A80036;stroke-width:1.5;" width="102" x="281" y="714.8047"/><text fill="#000000" font-family="sans-serif" font-size="14" lengthAdjust="spacing" textLength="88" x="288" y="734.7998">WebBrowser</text><rect fill="#FEFECE" filter="url(#f12dcy84fe03dp)" height="30.2969" style="stroke:#A80036;stroke-width:1.5;" width="51" x="770.5" y="87.9531"/><text fill="#000000" font-family="sans-serif" font-size="14" lengthAdjust="spacing" textLength="37" x="777.5" y="107.9482">Proxy</text><rect fill="#FEFECE" filter="url(#f12dcy84fe03dp)" height="30.2969" style="stroke:#A80036;stroke-width:1.5;" width="51" x="770.5" y="714.8047"/><text fill="#000000" font-family="sans-serif" font-size="14" lengthAdjust="spacing" textLength="37" x="777.5" y="734.7998">Proxy</text><rect fill="#FEFECE" filter="url(#f12dcy84fe03dp)" height="30.2969" style="stroke:#A80036;stroke-width:1.5;" width="46" x="1151" y="87.9531"/><text fill="#000000" font-family="sans-serif" font-size="14" lengthAdjust="spacing" textLength="32" x="1158" y="107.9482">Imuv</text><rect fill="#FEFECE" filter="url(#f12dcy84fe03dp)" height="30.2969" style="stroke:#A80036;stroke-width:1.5;" width="46" x="1151" y="714.8047"/><text fill="#000000" font-family="sans-serif" font-size="14" lengthAdjust="spacing" textLength="32" x="1158" y="734.7998">Imuv</text><rect fill="#FFFFFF" filter="url(#f12dcy84fe03dp)" height="124.6953" style="stroke:#A80036;stroke-width:1.0;" width="10" x="81.5" y="543.9766"/><rect fill="#FFFFFF" filter="url(#f12dcy84fe03dp)" height="509.2891" style="stroke:#A80036;stroke-width:1.0;" width="10" x="329" y="197.5156"/><rect fill="#FFFFFF" filter="url(#f12dcy84fe03dp)" height="87.3984" style="stroke:#A80036;stroke-width:1.0;" width="10" x="793" y="226.6484"/><rect fill="#FFFFFF" filter="url(#f12dcy84fe03dp)" height="87.3984" style="stroke:#A80036;stroke-width:1.0;" width="10" x="793" y="367.3125"/><rect fill="#FFFFFF" filter="url(#f12dcy84fe03dp)" height="29.1328" style="stroke:#A80036;stroke-width:1.0;" width="10" x="1171" y="255.7813"/><rect fill="#FFFFFF" filter="url(#f12dcy84fe03dp)" height="29.1328" style="stroke:#A80036;stroke-width:1.0;" width="10" x="1171" y="396.4453"/><rect fill="#EEEEEE" filter="url(#f12dcy84fe03dp)" height="3" style="stroke:#EEEEEE;stroke-width:1.0;" width="1221" x="0" y="153.8164"/><line style="stroke:#000000;stroke-width:1.0;" x1="0" x2="1221" y1="153.8164" y2="153.8164"/><line style="stroke:#000000;stroke-width:1.0;" x1="0" x2="1221" y1="156.8164" y2="156.8164"/><rect fill="#EEEEEE" filter="url(#f12dcy84fe03dp)" height="23.1328" style="stroke:#000000;stroke-width:2.0;" width="214" x="503.5" y="143.25"/><text fill="#000000" font-family="sans-serif" font-size="13" font-weight="bold" lengthAdjust="spacing" textLength="195" x="509.5" y="159.3169">Retrieve (web) client code</text><polygon fill="#A80036" points="317,193.5156,327,197.5156,317,201.5156,321,197.5156" style="stroke:#A80036;stroke-width:1.0;"/><line style="stroke:#A80036;stroke-width:1.0;" x1="24" x2="323" y1="197.5156" y2="197.5156"/><text fill="#000000" font-family="sans-serif" font-size="13" lengthAdjust="spacing" textLength="286" x="31" y="192.4497">OpenURL(https://mydemo.org/flyingCampus)</text><polygon fill="#A80036" points="781,222.6484,791,226.6484,781,230.6484,785,226.6484" style="stroke:#A80036;stroke-width:1.0;"/><line style="stroke:#A80036;stroke-width:1.0;" x1="339" x2="787" y1="226.6484" y2="226.6484"/><text fill="#000000" font-family="sans-serif" font-size="13" lengthAdjust="spacing" textLength="254" x="346" y="221.5825">https://mydemo.org/ GET /flyingCampus</text><polygon fill="#A80036" points="1159,251.7813,1169,255.7813,1159,259.7813,1163,255.7813" style="stroke:#A80036;stroke-width:1.0;"/><line style="stroke:#A80036;stroke-width:1.0;" x1="803" x2="1165" y1="255.7813" y2="255.7813"/><text fill="#000000" font-family="sans-serif" font-size="13" lengthAdjust="spacing" textLength="172" x="810" y="250.7153">http://localhost:8000/ GET /</text><polygon fill="#A80036" points="814,280.9141,804,284.9141,814,288.9141,810,284.9141" style="stroke:#A80036;stroke-width:1.0;"/><line style="stroke:#A80036;stroke-width:1.0;" x1="808" x2="1175" y1="284.9141" y2="284.9141"/><text fill="#000000" font-family="sans-serif" font-size="13" lengthAdjust="spacing" textLength="139" x="820" y="279.8481">http: POST index.html</text><polygon fill="#A80036" points="350,310.0469,340,314.0469,350,318.0469,346,314.0469" style="stroke:#A80036;stroke-width:1.0;"/><line style="stroke:#A80036;stroke-width:1.0;" x1="344" x2="797" y1="314.0469" y2="314.0469"/><text fill="#000000" font-family="sans-serif" font-size="13" lengthAdjust="spacing" textLength="236" x="356" y="308.981">https POST /flyingCampus/index.html</text><path d="M271,329.0469 L348,329.0469 L348,336.0469 L338,346.0469 L271,346.0469 L271,329.0469 " fill="#EEEEEE" style="stroke:#000000;stroke-width:1.0;"/><rect fill="none" height="133.6641" style="stroke:#000000;stroke-width:2.0;" width="940" x="271" y="329.0469"/><text fill="#000000" font-family="sans-serif" font-size="13" font-weight="bold" lengthAdjust="spacing" textLength="32" x="286" y="342.1138">loop</text><text fill="#000000" font-family="sans-serif" font-size="11" font-weight="bold" lengthAdjust="spacing" textLength="288" x="363" y="341.2573">[Recurse to get all client JS code and assets]</text><polygon fill="#A80036" points="781,363.3125,791,367.3125,781,371.3125,785,367.3125" style="stroke:#A80036;stroke-width:1.0;"/><line style="stroke:#A80036;stroke-width:1.0;" x1="339" x2="787" y1="367.3125" y2="367.3125"/><text fill="#000000" font-family="sans-serif" font-size="13" lengthAdjust="spacing" textLength="435" x="346" y="362.2466">https://mydemo.org/ GET /flyingCampus/&lt;some-path&gt;/&lt;some-file&gt;</text><polygon fill="#A80036" points="1159,392.4453,1169,396.4453,1159,400.4453,1163,396.4453" style="stroke:#A80036;stroke-width:1.0;"/><line style="stroke:#A80036;stroke-width:1.0;" x1="803" x2="1165" y1="396.4453" y2="396.4453"/><text fill="#000000" font-family="sans-serif" font-size="13" lengthAdjust="spacing" textLength="349" x="810" y="391.3794">http://localhost:8000/ GET /&lt;some-path&gt;/&lt;some-file&gt;</text><polygon fill="#A80036" points="814,421.5781,804,425.5781,814,429.5781,810,425.5781" style="stroke:#A80036;stroke-width:1.0;"/><line style="stroke:#A80036;stroke-width:1.0;" x1="808" x2="1175" y1="425.5781" y2="425.5781"/><text fill="#000000" font-family="sans-serif" font-size="13" lengthAdjust="spacing" textLength="253" x="820" y="420.5122">http: POST /&lt;some-path&gt;/&lt;some-file&gt;</text><polygon fill="#A80036" points="350,450.7109,340,454.7109,350,458.7109,346,454.7109" style="stroke:#A80036;stroke-width:1.0;"/><line style="stroke:#A80036;stroke-width:1.0;" x1="344" x2="797" y1="454.7109" y2="454.7109"/><text fill="#000000" font-family="sans-serif" font-size="13" lengthAdjust="spacing" textLength="350" x="356" y="449.645">https POST /flyingCampus//&lt;some-path&gt;/&lt;some-file&gt;</text><rect fill="#EEEEEE" filter="url(#f12dcy84fe03dp)" height="3" style="stroke:#EEEEEE;stroke-width:1.0;" width="1221" x="0" y="490.2773"/><line style="stroke:#000000;stroke-width:1.0;" x1="0" x2="1221" y1="490.2773" y2="490.2773"/><line style="stroke:#000000;stroke-width:1.0;" x1="0" x2="1221" y1="493.2773" y2="493.2773"/><rect fill="#EEEEEE" filter="url(#f12dcy84fe03dp)" height="23.1328" style="stroke:#000000;stroke-width:2.0;" width="248" x="486.5" y="479.7109"/><text fill="#000000" font-family="sans-serif" font-size="13" font-weight="bold" lengthAdjust="spacing" textLength="224" x="492.5" y="495.7778">Render integrated html/webgl</text><polygon fill="#A80036" points="131,529.9766,121,533.9766,131,537.9766,127,533.9766" style="stroke:#A80036;stroke-width:1.0;"/><line style="stroke:#A80036;stroke-width:1.0;" x1="125" x2="328" y1="533.9766" y2="533.9766"/><text fill="#000000" font-family="sans-serif" font-size="13" lengthAdjust="spacing" textLength="25" x="137" y="528.9106">new</text><rect fill="#FEFECE" filter="url(#f12dcy84fe03dp)" height="30.2969" style="stroke:#A80036;stroke-width:1.5;" width="63" x="53" y="512.8438"/><text fill="#000000" font-family="sans-serif" font-size="14" lengthAdjust="spacing" textLength="49" x="60" y="532.8389">WebGL</text><path d="M43,565.1406 L120,565.1406 L120,572.1406 L110,582.1406 L43,582.1406 L43,565.1406 " fill="#EEEEEE" style="stroke:#000000;stroke-width:1.0;"/><rect fill="none" height="46.2656" style="stroke:#000000;stroke-width:2.0;" width="354" x="43" y="565.1406"/><text fill="#000000" font-family="sans-serif" font-size="13" font-weight="bold" lengthAdjust="spacing" textLength="32" x="58" y="578.2075">loop</text><text fill="#000000" font-family="sans-serif" font-size="11" font-weight="bold" lengthAdjust="spacing" textLength="95" x="135" y="577.3511">[Create scene]</text><polygon fill="#A80036" points="102.5,599.4063,92.5,603.4063,102.5,607.4063,98.5,603.4063" style="stroke:#A80036;stroke-width:1.0;"/><line style="stroke:#A80036;stroke-width:1.0;" x1="96.5" x2="328" y1="603.4063" y2="603.4063"/><text fill="#000000" font-family="sans-serif" font-size="13" lengthAdjust="spacing" textLength="196" x="108.5" y="598.3403">transmit scene object/element</text><polygon fill="#A80036" points="102.5,635.5391,92.5,639.5391,102.5,643.5391,98.5,639.5391" style="stroke:#A80036;stroke-width:1.0;"/><line style="stroke:#A80036;stroke-width:1.0;" x1="96.5" x2="328" y1="639.5391" y2="639.5391"/><text fill="#000000" font-family="sans-serif" font-size="13" lengthAdjust="spacing" textLength="52" x="108.5" y="634.4731">render()</text><polygon fill="#A80036" points="317,664.6719,327,668.6719,317,672.6719,321,668.6719" style="stroke:#A80036;stroke-width:1.0;"/><line style="stroke:#A80036;stroke-width:1.0;" x1="86.5" x2="323" y1="668.6719" y2="668.6719"/><text fill="#000000" font-family="sans-serif" font-size="13" lengthAdjust="spacing" textLength="146" x="93.5" y="663.606">webgl_rendered_scene</text><polygon fill="#A80036" points="35,693.8047,25,697.8047,35,701.8047,31,697.8047" style="stroke:#A80036;stroke-width:1.0;"/><line style="stroke:#A80036;stroke-width:1.0;" x1="29" x2="328" y1="697.8047" y2="697.8047"/><text fill="#000000" font-family="sans-serif" font-size="13" lengthAdjust="spacing" textLength="252" x="41" y="692.7388">display html/webgl integrated rendering</text><!--MD5=[635ce626de4b20774d63598c81c10d10]
@startuml

title Initial connection to an Imuv server (through a proxy)

actor User
participant WebGL
participant WebBrowser
participant Proxy
participant Imuv

== Retrieve (web) client code ==
User -> WebBrowser : OpenURL(https://mydemo.org/flyingCampus)
activate WebBrowser
WebBrowser -> Proxy : https://mydemo.org/ GET /flyingCampus
activate Proxy
Proxy -> Imuv : http://localhost:8000/ GET /
activate Imuv
Proxy <- Imuv : http: POST index.html
deactivate Imuv
WebBrowser <- Proxy : https POST /flyingCampus/index.html
deactivate Proxy

loop Recurse to get all client JS code and assets
  WebBrowser -> Proxy : https://mydemo.org/ GET /flyingCampus/<some-path>/<some-file>
  activate Proxy
  Proxy -> Imuv : http://localhost:8000/ GET /<some-path>/<some-file>
  activate Imuv
  Proxy <- Imuv : http: POST /<some-path>/<some-file>
  deactivate Imuv
  WebBrowser <- Proxy : https POST /flyingCampus//<some-path>/<some-file>
  deactivate Proxy
end

== Render integrated html/webgl  ==
WebGL <- WebBrowser **: new
activate WebGL
loop Create scene
  WebGL <- WebBrowser : transmit scene object/element
end
WebGL <- WebBrowser : render()
WebGL -> WebBrowser : webgl_rendered_scene
deactivate WebGL
User <- WebBrowser : display html/webgl integrated rendering
@enduml

PlantUML version 1.2022.0(Tue Jan 11 16:16:42 UTC 2022)
(GPL source distribution)
Java Runtime: OpenJDK Runtime Environment
JVM: OpenJDK 64-Bit Server VM
Default Encoding: UTF-8
Language: en
Country: US
--></g></svg>