<?xml version="1.0" encoding="UTF-8" standalone="no"?><svg xmlns="http://www.w3.org/2000/svg" xmlns:xlink="http://www.w3.org/1999/xlink" contentScriptType="application/ecmascript" contentStyleType="text/css" height="784px" preserveAspectRatio="none" style="width:1250px;height:784px;background:#FFFFFF;" version="1.1" viewBox="0 0 1250 784" width="1250px" zoomAndPan="magnify"><defs><filter height="300%" id="fqnj4oas4w0lw" width="300%" x="-1" y="-1"><feGaussianBlur result="blurOut" stdDeviation="2.0"/><feColorMatrix in="blurOut" result="blurOut2" type="matrix" values="0 0 0 0 0 0 0 0 0 0 0 0 0 0 0 0 0 0 .4 0"/><feOffset dx="4.0" dy="4.0" in="blurOut2" result="blurOut3"/><feBlend in="SourceGraphic" in2="blurOut3" mode="normal"/></filter></defs><g><text fill="#000000" font-family="sans-serif" font-size="18" lengthAdjust="spacing" textLength="480" x="383" y="28.708">Initial connection to an Imuv server (through a proxy)</text><rect fill="#ADD8E6" height="737.1484" style="stroke:#A80036;stroke-width:1.0;" width="322" x="64" y="40.9531"/><text fill="#000000" font-family="sans-serif" font-size="17" font-weight="bold" lengthAdjust="spacing" textLength="129" x="160.5" y="56.7329">Web Browser</text><rect fill="#FFFFFF" filter="url(#fqnj4oas4w0lw)" height="124.6953" style="stroke:#A80036;stroke-width:1.0;" width="10" x="96.5" y="512.9766"/><rect fill="#FFFFFF" filter="url(#fqnj4oas4w0lw)" height="504.2891" style="stroke:#A80036;stroke-width:1.0;" width="10" x="344" y="178.5156"/><rect fill="#FFFFFF" filter="url(#fqnj4oas4w0lw)" height="87.3984" style="stroke:#A80036;stroke-width:1.0;" width="10" x="808" y="207.6484"/><rect fill="#FFFFFF" filter="url(#fqnj4oas4w0lw)" height="87.3984" style="stroke:#A80036;stroke-width:1.0;" width="10" x="808" y="348.3125"/><rect fill="#FFFFFF" filter="url(#fqnj4oas4w0lw)" height="29.1328" style="stroke:#A80036;stroke-width:1.0;" width="10" x="1186" y="236.7813"/><rect fill="#FFFFFF" filter="url(#fqnj4oas4w0lw)" height="29.1328" style="stroke:#A80036;stroke-width:1.0;" width="10" x="1186" y="377.4453"/><rect fill="#FFFFFF" filter="url(#fqnj4oas4w0lw)" height="310.4609" style="stroke:#000000;stroke-width:2.0;" width="1226" x="10" y="140.25"/><rect fill="#FFFFFF" filter="url(#fqnj4oas4w0lw)" height="133.6641" style="stroke:#000000;stroke-width:2.0;" width="920" x="306" y="310.0469"/><rect fill="#FFFFFF" filter="url(#fqnj4oas4w0lw)" height="210.0938" style="stroke:#000000;stroke-width:2.0;" width="392" x="10" y="464.7109"/><rect fill="#FFFFFF" filter="url(#fqnj4oas4w0lw)" height="46.2656" style="stroke:#000000;stroke-width:2.0;" width="334" x="58" y="534.1406"/><line style="stroke:#A80036;stroke-width:1.0;stroke-dasharray:5.0,5.0;" x1="39" x2="39" y1="123.25" y2="691.8047"/><line style="stroke:#A80036;stroke-width:1.0;stroke-dasharray:5.0,5.0;" x1="101" x2="101" y1="514.4922" y2="691.8047"/><line style="stroke:#A80036;stroke-width:1.0;stroke-dasharray:5.0,5.0;" x1="349" x2="349" y1="123.25" y2="691.8047"/><line style="stroke:#A80036;stroke-width:1.0;stroke-dasharray:5.0,5.0;" x1="812.5" x2="812.5" y1="123.25" y2="691.8047"/><line style="stroke:#A80036;stroke-width:1.0;stroke-dasharray:5.0,5.0;" x1="1191" x2="1191" y1="123.25" y2="691.8047"/><text fill="#000000" font-family="sans-serif" font-size="14" lengthAdjust="spacing" textLength="32" x="20" y="119.9482">User</text><ellipse cx="39" cy="49.9531" fill="#FEFECE" filter="url(#fqnj4oas4w0lw)" rx="8" ry="8" style="stroke:#A80036;stroke-width:2.0;"/><path d="M39,57.9531 L39,84.9531 M26,65.9531 L52,65.9531 M39,84.9531 L26,99.9531 M39,84.9531 L52,99.9531 " fill="none" filter="url(#fqnj4oas4w0lw)" style="stroke:#A80036;stroke-width:2.0;"/><text fill="#000000" font-family="sans-serif" font-size="14" lengthAdjust="spacing" textLength="32" x="20" y="703.7998">User</text><ellipse cx="39" cy="717.1016" fill="#FEFECE" filter="url(#fqnj4oas4w0lw)" rx="8" ry="8" style="stroke:#A80036;stroke-width:2.0;"/><path d="M39,725.1016 L39,752.1016 M26,733.1016 L52,733.1016 M39,752.1016 L26,767.1016 M39,752.1016 L52,767.1016 " fill="none" filter="url(#fqnj4oas4w0lw)" style="stroke:#A80036;stroke-width:2.0;"/><rect fill="#FEFECE" filter="url(#fqnj4oas4w0lw)" height="30.2969" style="stroke:#A80036;stroke-width:1.5;" width="63" x="68" y="690.8047"/><text fill="#000000" font-family="sans-serif" font-size="14" lengthAdjust="spacing" textLength="49" x="75" y="710.7998">WebGL</text><rect fill="#FEFECE" filter="url(#fqnj4oas4w0lw)" height="30.2969" style="stroke:#A80036;stroke-width:1.5;" width="62" x="316" y="87.9531"/><text fill="#000000" font-family="sans-serif" font-size="14" lengthAdjust="spacing" textLength="48" x="323" y="107.9482">Engine</text><rect fill="#FEFECE" filter="url(#fqnj4oas4w0lw)" height="30.2969" style="stroke:#A80036;stroke-width:1.5;" width="62" x="316" y="690.8047"/><text fill="#000000" font-family="sans-serif" font-size="14" lengthAdjust="spacing" textLength="48" x="323" y="710.7998">Engine</text><rect fill="#FEFECE" filter="url(#fqnj4oas4w0lw)" height="30.2969" style="stroke:#A80036;stroke-width:1.5;" width="51" x="785.5" y="87.9531"/><text fill="#000000" font-family="sans-serif" font-size="14" lengthAdjust="spacing" textLength="37" x="792.5" y="107.9482">Proxy</text><rect fill="#FEFECE" filter="url(#fqnj4oas4w0lw)" height="30.2969" style="stroke:#A80036;stroke-width:1.5;" width="51" x="785.5" y="690.8047"/><text fill="#000000" font-family="sans-serif" font-size="14" lengthAdjust="spacing" textLength="37" x="792.5" y="710.7998">Proxy</text><rect fill="#FEFECE" filter="url(#fqnj4oas4w0lw)" height="30.2969" style="stroke:#A80036;stroke-width:1.5;" width="46" x="1166" y="87.9531"/><text fill="#000000" font-family="sans-serif" font-size="14" lengthAdjust="spacing" textLength="32" x="1173" y="107.9482">Imuv</text><rect fill="#FEFECE" filter="url(#fqnj4oas4w0lw)" height="30.2969" style="stroke:#A80036;stroke-width:1.5;" width="46" x="1166" y="690.8047"/><text fill="#000000" font-family="sans-serif" font-size="14" lengthAdjust="spacing" textLength="32" x="1173" y="710.7998">Imuv</text><rect fill="#FFFFFF" filter="url(#fqnj4oas4w0lw)" height="124.6953" style="stroke:#A80036;stroke-width:1.0;" width="10" x="96.5" y="512.9766"/><rect fill="#FFFFFF" filter="url(#fqnj4oas4w0lw)" height="504.2891" style="stroke:#A80036;stroke-width:1.0;" width="10" x="344" y="178.5156"/><rect fill="#FFFFFF" filter="url(#fqnj4oas4w0lw)" height="87.3984" style="stroke:#A80036;stroke-width:1.0;" width="10" x="808" y="207.6484"/><rect fill="#FFFFFF" filter="url(#fqnj4oas4w0lw)" height="87.3984" style="stroke:#A80036;stroke-width:1.0;" width="10" x="808" y="348.3125"/><rect fill="#FFFFFF" filter="url(#fqnj4oas4w0lw)" height="29.1328" style="stroke:#A80036;stroke-width:1.0;" width="10" x="1186" y="236.7813"/><rect fill="#FFFFFF" filter="url(#fqnj4oas4w0lw)" height="29.1328" style="stroke:#A80036;stroke-width:1.0;" width="10" x="1186" y="377.4453"/><path d="M10,140.25 L250,140.25 L250,147.25 L240,157.25 L10,157.25 L10,140.25 " fill="#EEEEEE" style="stroke:#000000;stroke-width:1.0;"/><rect fill="none" height="310.4609" style="stroke:#000000;stroke-width:2.0;" width="1226" x="10" y="140.25"/><text fill="#000000" font-family="sans-serif" font-size="13" font-weight="bold" lengthAdjust="spacing" textLength="195" x="25" y="153.3169">Retrieve (web) client code</text><polygon fill="#A80036" points="332,174.5156,342,178.5156,332,182.5156,336,178.5156" style="stroke:#A80036;stroke-width:1.0;"/><line style="stroke:#A80036;stroke-width:1.0;" x1="39" x2="338" y1="178.5156" y2="178.5156"/><text fill="#000000" font-family="sans-serif" font-size="13" lengthAdjust="spacing" textLength="286" x="46" y="173.4497">OpenURL(https://mydemo.org/flyingCampus)</text><polygon fill="#A80036" points="796,203.6484,806,207.6484,796,211.6484,800,207.6484" style="stroke:#A80036;stroke-width:1.0;"/><line style="stroke:#A80036;stroke-width:1.0;" x1="354" x2="802" y1="207.6484" y2="207.6484"/><text fill="#000000" font-family="sans-serif" font-size="13" lengthAdjust="spacing" textLength="254" x="361" y="202.5825">https://mydemo.org/ GET /flyingCampus</text><polygon fill="#A80036" points="1174,232.7813,1184,236.7813,1174,240.7813,1178,236.7813" style="stroke:#A80036;stroke-width:1.0;"/><line style="stroke:#A80036;stroke-width:1.0;" x1="818" x2="1180" y1="236.7813" y2="236.7813"/><text fill="#000000" font-family="sans-serif" font-size="13" lengthAdjust="spacing" textLength="172" x="825" y="231.7153">http://localhost:8000/ GET /</text><polygon fill="#A80036" points="829,261.9141,819,265.9141,829,269.9141,825,265.9141" style="stroke:#A80036;stroke-width:1.0;"/><line style="stroke:#A80036;stroke-width:1.0;" x1="823" x2="1190" y1="265.9141" y2="265.9141"/><text fill="#000000" font-family="sans-serif" font-size="13" lengthAdjust="spacing" textLength="101" x="835" y="260.8481">http: index.html</text><polygon fill="#A80036" points="365,291.0469,355,295.0469,365,299.0469,361,295.0469" style="stroke:#A80036;stroke-width:1.0;"/><line style="stroke:#A80036;stroke-width:1.0;" x1="359" x2="812" y1="295.0469" y2="295.0469"/><text fill="#000000" font-family="sans-serif" font-size="13" lengthAdjust="spacing" textLength="202" x="371" y="289.981">https: /flyingCampus/index.html</text><path d="M306,310.0469 L383,310.0469 L383,317.0469 L373,327.0469 L306,327.0469 L306,310.0469 " fill="#EEEEEE" style="stroke:#000000;stroke-width:1.0;"/><rect fill="none" height="133.6641" style="stroke:#000000;stroke-width:2.0;" width="920" x="306" y="310.0469"/><text fill="#000000" font-family="sans-serif" font-size="13" font-weight="bold" lengthAdjust="spacing" textLength="32" x="321" y="323.1138">loop</text><text fill="#000000" font-family="sans-serif" font-size="11" font-weight="bold" lengthAdjust="spacing" textLength="288" x="398" y="322.2573">[Recurse to get all client JS code and assets]</text><polygon fill="#A80036" points="796,344.3125,806,348.3125,796,352.3125,800,348.3125" style="stroke:#A80036;stroke-width:1.0;"/><line style="stroke:#A80036;stroke-width:1.0;" x1="354" x2="802" y1="348.3125" y2="348.3125"/><text fill="#000000" font-family="sans-serif" font-size="13" lengthAdjust="spacing" textLength="435" x="361" y="343.2466">https://mydemo.org/ GET /flyingCampus/&lt;some-path&gt;/&lt;some-file&gt;</text><polygon fill="#A80036" points="1174,373.4453,1184,377.4453,1174,381.4453,1178,377.4453" style="stroke:#A80036;stroke-width:1.0;"/><line style="stroke:#A80036;stroke-width:1.0;" x1="818" x2="1180" y1="377.4453" y2="377.4453"/><text fill="#000000" font-family="sans-serif" font-size="13" lengthAdjust="spacing" textLength="349" x="825" y="372.3794">http://localhost:8000/ GET /&lt;some-path&gt;/&lt;some-file&gt;</text><polygon fill="#A80036" points="829,402.5781,819,406.5781,829,410.5781,825,406.5781" style="stroke:#A80036;stroke-width:1.0;"/><line style="stroke:#A80036;stroke-width:1.0;" x1="823" x2="1190" y1="406.5781" y2="406.5781"/><text fill="#000000" font-family="sans-serif" font-size="13" lengthAdjust="spacing" textLength="215" x="835" y="401.5122">http: /&lt;some-path&gt;/&lt;some-file&gt;</text><polygon fill="#A80036" points="365,431.7109,355,435.7109,365,439.7109,361,435.7109" style="stroke:#A80036;stroke-width:1.0;"/><line style="stroke:#A80036;stroke-width:1.0;" x1="359" x2="812" y1="435.7109" y2="435.7109"/><text fill="#000000" font-family="sans-serif" font-size="13" lengthAdjust="spacing" textLength="316" x="371" y="430.645">https: /flyingCampus//&lt;some-path&gt;/&lt;some-file&gt;</text><path d="M10,464.7109 L279,464.7109 L279,471.7109 L269,481.7109 L10,481.7109 L10,464.7109 " fill="#EEEEEE" style="stroke:#000000;stroke-width:1.0;"/><rect fill="none" height="210.0938" style="stroke:#000000;stroke-width:2.0;" width="392" x="10" y="464.7109"/><text fill="#000000" font-family="sans-serif" font-size="13" font-weight="bold" lengthAdjust="spacing" textLength="224" x="25" y="477.7778">Render integrated html/webgl</text><polygon fill="#A80036" points="146,498.9766,136,502.9766,146,506.9766,142,502.9766" style="stroke:#A80036;stroke-width:1.0;"/><line style="stroke:#A80036;stroke-width:1.0;" x1="140" x2="343" y1="502.9766" y2="502.9766"/><text fill="#000000" font-family="sans-serif" font-size="13" lengthAdjust="spacing" textLength="25" x="152" y="497.9106">new</text><rect fill="#FEFECE" filter="url(#fqnj4oas4w0lw)" height="30.2969" style="stroke:#A80036;stroke-width:1.5;" width="63" x="68" y="481.8438"/><text fill="#000000" font-family="sans-serif" font-size="14" lengthAdjust="spacing" textLength="49" x="75" y="501.8389">WebGL</text><path d="M58,534.1406 L135,534.1406 L135,541.1406 L125,551.1406 L58,551.1406 L58,534.1406 " fill="#EEEEEE" style="stroke:#000000;stroke-width:1.0;"/><rect fill="none" height="46.2656" style="stroke:#000000;stroke-width:2.0;" width="334" x="58" y="534.1406"/><text fill="#000000" font-family="sans-serif" font-size="13" font-weight="bold" lengthAdjust="spacing" textLength="32" x="73" y="547.2075">loop</text><text fill="#000000" font-family="sans-serif" font-size="11" font-weight="bold" lengthAdjust="spacing" textLength="95" x="150" y="546.3511">[Create scene]</text><polygon fill="#A80036" points="117.5,568.4063,107.5,572.4063,117.5,576.4063,113.5,572.4063" style="stroke:#A80036;stroke-width:1.0;"/><line style="stroke:#A80036;stroke-width:1.0;" x1="111.5" x2="343" y1="572.4063" y2="572.4063"/><text fill="#000000" font-family="sans-serif" font-size="13" lengthAdjust="spacing" textLength="196" x="123.5" y="567.3403">transmit scene object/element</text><polygon fill="#A80036" points="117.5,604.5391,107.5,608.5391,117.5,612.5391,113.5,608.5391" style="stroke:#A80036;stroke-width:1.0;"/><line style="stroke:#A80036;stroke-width:1.0;" x1="111.5" x2="343" y1="608.5391" y2="608.5391"/><text fill="#000000" font-family="sans-serif" font-size="13" lengthAdjust="spacing" textLength="52" x="123.5" y="603.4731">render()</text><polygon fill="#A80036" points="332,633.6719,342,637.6719,332,641.6719,336,637.6719" style="stroke:#A80036;stroke-width:1.0;"/><line style="stroke:#A80036;stroke-width:1.0;" x1="101.5" x2="338" y1="637.6719" y2="637.6719"/><text fill="#000000" font-family="sans-serif" font-size="13" lengthAdjust="spacing" textLength="146" x="108.5" y="632.606">webgl_rendered_scene</text><polygon fill="#A80036" points="50,662.8047,40,666.8047,50,670.8047,46,666.8047" style="stroke:#A80036;stroke-width:1.0;"/><line style="stroke:#A80036;stroke-width:1.0;" x1="44" x2="343" y1="666.8047" y2="666.8047"/><text fill="#000000" font-family="sans-serif" font-size="13" lengthAdjust="spacing" textLength="252" x="56" y="661.7388">display html/webgl integrated rendering</text><!--MD5=[4407f8cffadd8a7d425daa419033b04e]
@startuml

title Initial connection to an Imuv server (through a proxy)

actor User

box =Web Browser #LightBlue
  participant WebGL
  participant Engine
end box


participant Proxy
participant Imuv

group Retrieve (web) client code
  User -> Engine : OpenURL(https://mydemo.org/flyingCampus)
  activate Engine
  Engine -> Proxy : https://mydemo.org/ GET /flyingCampus
  activate Proxy
  Proxy -> Imuv : http://localhost:8000/ GET /
  activate Imuv
  Proxy <- Imuv : http: index.html
  deactivate Imuv
  Engine <- Proxy : https: /flyingCampus/index.html
  deactivate Proxy

  loop Recurse to get all client JS code and assets
    Engine -> Proxy : https://mydemo.org/ GET /flyingCampus/<some-path>/<some-file>
    activate Proxy
    Proxy -> Imuv : http://localhost:8000/ GET /<some-path>/<some-file>
    activate Imuv
    Proxy <- Imuv : http: /<some-path>/<some-file>
    deactivate Imuv
    Engine <- Proxy : https: /flyingCampus//<some-path>/<some-file>
    deactivate Proxy
end loop
end group

group Render integrated html/webgl
  WebGL <- Engine **: new
  activate WebGL
  loop Create scene
    WebGL <- Engine : transmit scene object/element
  end
  WebGL <- Engine : render()
  WebGL -> Engine : webgl_rendered_scene
  deactivate WebGL
User <- Engine : display html/webgl integrated rendering
end group

@enduml

PlantUML version 1.2022.1(Tue Feb 01 18:19:58 UTC 2022)
(GPL source distribution)
Java Runtime: OpenJDK Runtime Environment
JVM: OpenJDK 64-Bit Server VM
Default Encoding: UTF-8
Language: en
Country: US
--></g></svg>